<?xml version="1.0" encoding="UTF-8" standalone="no"?>
<!-- Created with Inkscape (http://www.inkscape.org/) -->

<svg
   width="24"
   height="24"
   viewBox="59.8 146.41 94.33 94.33"
   version="1.1"
   id="svg1"
   xml:space="preserve"
   xmlns="http://www.w3.org/2000/svg"
   xmlns:svg="http://www.w3.org/2000/svg"><defs
     id="defs1" /><g
     id="layer1"><path
       style="fill:#000000"
       d="m 83.730667,228.96253 c -1.81256,-1.22169 -1.7477,-0.62983 -1.95675,-17.8535 -0.22736,-18.73156 0.14789,-17.53524 -3.9789,-12.68469 -3.38172,3.97479 -4.54861,4.55922 -6.74803,3.37965 -3.381582,-1.81355 -2.81051,-3.49754 3.78286,-11.15504 4.45127,-5.16968 4.72714,-5.47412 4.66749,-6.53598 -0.0651,-1.15818 0.67897,-2.82478 2.82009,-2.85305 1.30205,-0.0172 12.49315,0.25396 14.16585,-8.6e-4 1.66321,-0.25338 2.58921,0.56446 2.60088,2.2971 0.007,1.0009 4.734563,7.15753 8.017373,10.44035 0.42695,0.42695 8.37915,-9.58693 8.37915,-10.55153 0,-1.61253 0.97288,-2.4327 2.59322,-2.18615 1.61396,0.24557 12.24959,0.24557 13.86355,0 1.68376,-0.2562 2.59323,0.56371 2.59323,2.33787 0,1.14778 0.12812,1.32591 5.15061,7.16111 6.05432,7.03399 6.58876,8.19842 4.71375,10.27028 -2.15302,2.37907 -4.02395,1.7266 -7.88754,-2.75069 -4.30503,-4.98884 -4.30217,-5.00479 -1.4793,8.24339 l 2.05774,9.65729 -2.33596,0.0761 -2.33597,0.0761 -9.9e-4,5.34789 c -10e-4,6.61394 -0.56786,7.86142 -3.57089,7.86142 -3.00694,0 -3.56966,-1.24388 -3.57088,-7.8934 -10e-4,-7.69103 -0.60535,-7.49733 -0.79474,0.25489 -0.16089,6.58559 -0.65568,7.63851 -3.58954,7.63851 -2.9579,0 -3.55201,-1.31611 -3.55322,-7.87135 l -9.9e-4,-5.35782 h -2.33462 -2.33462 l 2.1979,-10.37609 c 1.20885,-5.70685 2.1106,-10.46084 2.00389,-10.56443 -0.51113,-0.4962 -0.95312,-0.13888 -3.48392,2.81657 -3.18038,3.71402 -3.75047,4.10104 -6.04102,4.10104 -2.50573,0 -3.06163,-0.35686 -6.13519,-3.93841 -1.677703,-1.95499 -2.927003,-3.19258 -3.175003,-3.14525 -0.50122,0.0957 -0.49308,-0.10157 -0.74625,18.07581 -0.21261,15.26444 -0.12686,14.58614 -1.99211,15.75813 -1.14692,0.72063 -3.10145,0.56667 -4.06326,-0.32008 -1.34962,-1.24431 -1.41247,-1.70775 -1.41247,-10.41441 0,-5.20914 -0.094,-8.07829 -0.26459,-8.07829 -0.17061,0 -0.26458,2.86915 -0.26458,8.07829 0,8.70666 -0.0628,9.1701 -1.41247,10.41441 -1.02654,0.94643 -2.93554,1.05924 -4.14378,0.24487 z m -0.67646,-35.20061 c 2.79468,-18.60633 0,0 0,0 z m 3.13761,-13.99119 c -4.09055,-1.57262 -6.48374,-6.44683 -5.24965,-10.69195 2.88519,-9.9247 17.50164,-7.93364 17.46542,2.37916 -0.0223,6.35551 -6.26212,10.60168 -12.21577,8.31279 z m 36.168023,0.32395 c -9.72436,-3.19015 -7.78515,-17.3232 2.38125,-17.35466 2.29161,-0.007 2.55663,-0.061 3.00157,-0.61047 3.85047,-4.75513 9.06623,-0.73141 9.33083,7.19831 0.13161,3.94439 0.42231,5.03131 1.59158,5.95106 1.11297,0.87546 -2.36575,1.19044 -4.53127,0.41028 -0.58208,-0.2097 -1.08504,-0.38307 -1.11768,-0.38526 -0.0327,-0.002 -0.24119,0.34766 -0.46344,0.77744 -1.57786,3.05124 -6.82627,5.11773 -10.19284,4.0133 z"
       id="path1" /></g></svg>
